<svg width="30" height="30" viewBox="0 0 30 30" fill="none" xmlns="http://www.w3.org/2000/svg">
<path d="M20.5385 15V20.5385M20.5385 11.2948V11.3077M27 8.33354V21.6665C26.9995 23.0809 26.4374 24.4372 25.4373 25.4373C24.4372 26.4374 23.0809 26.9995 21.6665 27H8.33538C6.92067 27 5.56388 26.4381 4.56335 25.438C3.56282 24.4378 3.00049 23.0812 3 21.6665V8.33538C3 6.92067 3.56187 5.56388 4.56205 4.56335C5.56222 3.56282 6.91883 3.00049 8.33354 3H21.6665C23.0809 3.00049 24.4372 3.56257 25.4373 4.5627C26.4374 5.56282 26.9995 6.91915 27 8.33354Z" stroke="#F6A723" stroke-width="2" stroke-linecap="round" stroke-linejoin="round"/>
<path d="M9 20L10.5004 15.875M10.5004 15.875L13 9L15.4996 15.875M10.5004 15.875H15.4996M17 20L15.4996 15.875" stroke="#F6A723" stroke-width="2" stroke-linecap="round" stroke-linejoin="round"/>
</svg>
