<svg width="30" height="30" viewBox="0 0 30 30" fill="none" xmlns="http://www.w3.org/2000/svg">
<path d="M15.5 22.4281C14.8363 22.4282 14.1934 22.2019 13.6821 21.7883C13.1708 21.3746 12.8233 20.7995 12.6994 20.1621C10.8357 19.5991 9.19456 18.4889 7.9988 16.9824C7.09608 15.8461 6.47581 14.5202 6.1869 13.1095C5.89799 11.6987 5.94836 10.2417 6.33402 8.85318C6.71968 7.46471 7.43009 6.18283 8.40922 5.10864C9.38835 4.03445 10.6094 3.19734 11.9761 2.66334C13.3428 2.12934 14.8177 1.91306 16.2845 2.03155C17.7513 2.15004 19.1699 2.60007 20.4283 3.34613C21.6868 4.09219 22.7507 5.11388 23.5362 6.33062C24.3216 7.54735 24.8071 8.92585 24.9544 10.3574C25.0057 10.8681 24.5744 11.2842 24.05 11.2842C23.5256 11.2842 23.1057 10.8663 23.043 10.3574C22.8734 9.04393 22.3479 7.79865 21.5208 6.75036C20.6937 5.70208 19.5951 4.88888 18.3386 4.3949C17.0822 3.90093 15.7135 3.74412 14.3742 3.94071C13.035 4.1373 11.7738 4.68014 10.7211 5.51307C9.66849 6.34599 8.86265 7.43875 8.387 8.67826C7.91134 9.91777 7.78315 11.259 8.01568 12.5632C8.24821 13.8674 8.83302 15.0872 9.70959 16.0963C10.5862 17.1054 11.7227 17.8673 13.0015 18.303C13.2433 17.8718 13.5975 17.5109 14.0281 17.2568C14.4588 17.0028 14.9505 16.8646 15.4534 16.8565C15.9563 16.8483 16.4525 16.9704 16.8915 17.2104C17.3306 17.4504 17.6968 17.7996 17.9531 18.2227C18.2093 18.6458 18.3465 19.1276 18.3506 19.6193C18.3547 20.111 18.2256 20.595 17.9765 21.0221C17.7273 21.4492 17.367 21.8043 16.932 22.0512C16.497 22.2982 16.003 22.4282 15.5 22.4281ZM7.9 19.6421V19.5919C7.38048 19.1371 6.90475 18.6366 6.4788 18.0968C6.16666 18.5544 6.00006 19.0921 6 19.6421V20.5707C6 24.2315 9.534 28 15.5 28C21.466 28 25 24.2315 25 20.5707V19.6421C25 18.9032 24.6997 18.1946 24.1653 17.6721C23.6308 17.1496 22.9059 16.8561 22.15 16.8561H19.3C19.7161 17.3947 20.0125 18.0262 20.155 18.7134H22.15C22.402 18.7134 22.6436 18.8113 22.8218 18.9854C22.9999 19.1596 23.1 19.3958 23.1 19.6421V20.5707C23.1 23.2416 20.3792 26.1427 15.5 26.1427C10.6208 26.1427 7.9 23.2416 7.9 20.5707V19.6421ZM15.5 14.9988C14.4128 14.9988 13.3586 15.3633 12.5132 16.0315C11.6825 15.534 10.9966 14.836 10.5215 14.0047C10.0464 13.1733 9.7979 12.2365 9.8 11.2842C9.80028 10.3128 10.0604 9.35829 10.5544 8.51544C11.0485 7.6726 11.7594 6.97067 12.6166 6.47927C13.4738 5.98788 14.4476 5.7241 15.4413 5.71409C16.435 5.70408 17.4141 5.9482 18.2815 6.42222C19.1489 6.89625 19.8744 7.58371 20.3861 8.41643C20.8979 9.24914 21.178 10.1982 21.1988 11.1694C21.2195 12.1406 20.9802 13.1002 20.5044 13.9531C20.0287 14.806 19.3332 15.5224 18.4868 16.0315C17.6414 15.3633 16.5872 14.9988 15.5 14.9988ZM11.7 11.2842C11.7 12.2693 12.1004 13.2142 12.813 13.9108C13.5256 14.6074 14.4922 14.9988 15.5 14.9988C16.5078 14.9988 17.4744 14.6074 18.187 13.9108C18.8996 13.2142 19.3 12.2693 19.3 11.2842C19.3 10.299 18.8996 9.35415 18.187 8.65753C17.4744 7.9609 16.5078 7.56954 15.5 7.56954C14.4922 7.56954 13.5256 7.9609 12.813 8.65753C12.1004 9.35415 11.7 10.299 11.7 11.2842Z" fill="#ED4F9D"/>
</svg>
