<svg width="64" height="50" viewBox="0 0 64 50" fill="none" xmlns="http://www.w3.org/2000/svg">
<circle cx="25" cy="25" r="25" fill="#E2B1FB"/>
<path d="M46.402 21.2231C46.402 21.8983 46.9563 22.4462 47.6392 22.4462H48.7773L45.4569 25.7291C45.4186 25.767 45.3731 25.7971 45.323 25.8177C45.2729 25.8383 45.2192 25.8488 45.1649 25.8488C45.1107 25.8488 45.057 25.8383 45.0069 25.8177C44.9568 25.7971 44.9113 25.767 44.873 25.7291L42.2569 23.1426C41.7156 22.6078 40.9817 22.3074 40.2164 22.3074C39.4512 22.3074 38.7173 22.6078 38.176 23.1426L34.3937 26.882C34.2722 26.994 34.1747 27.1291 34.1071 27.2791C34.0395 27.4291 34.0031 27.5911 34.0002 27.7553C33.9973 27.9195 34.0278 28.0827 34.09 28.235C34.1523 28.3873 34.2449 28.5256 34.3623 28.6418C34.4798 28.7579 34.6198 28.8495 34.7738 28.911C34.9278 28.9725 35.0928 29.0027 35.2589 28.9998C35.4251 28.9969 35.5889 28.961 35.7406 28.8941C35.8924 28.8273 36.0289 28.7309 36.1422 28.6107L39.9245 24.8712C39.9628 24.8333 40.0083 24.8032 40.0584 24.7826C40.1085 24.762 40.1622 24.7515 40.2164 24.7515C40.2707 24.7515 40.3244 24.762 40.3745 24.7826C40.4246 24.8032 40.4701 24.8333 40.5084 24.8712L43.1245 27.4577C43.6658 27.9925 44.3997 28.2929 45.1649 28.2929C45.9301 28.2929 46.6641 27.9925 47.2053 27.4577L50.5258 24.1765V25.3002C50.5258 25.6245 50.6561 25.9356 50.8881 26.165C51.1201 26.3944 51.4348 26.5233 51.7629 26.5233C52.091 26.5233 52.4057 26.3944 52.6377 26.165C52.8697 25.9356 53 25.6245 53 25.3002V21.2231C53 20.8987 52.8697 20.5876 52.6377 20.3582C52.4057 20.1289 52.091 20 51.7629 20H47.6392C47.3111 20 46.9964 20.1289 46.7644 20.3582C46.5324 20.5876 46.402 20.8987 46.402 21.2231Z" fill="#0F172A"/>
<path fill-rule="evenodd" clip-rule="evenodd" d="M43.9046 7C40.0383 7 37.0093 7 34.645 7.31814C32.2272 7.64298 30.3183 8.32279 28.8197 9.81972C27.3211 11.3183 26.643 13.2272 26.3181 15.6467C26 18.0093 26 21.0383 26 24.9046V25.0954C26 28.9617 26 31.9907 26.3181 34.355C26.643 36.7728 27.3228 38.6817 28.8197 40.1803C30.3183 41.6789 32.2272 42.357 34.6467 42.6819C37.0093 43 40.0383 43 43.9046 43H44.0954C47.9617 43 50.9907 43 53.355 42.6819C55.7728 42.357 57.6817 41.6772 59.1803 40.1803C60.6789 38.6817 61.357 36.7728 61.6819 34.3533C62 31.9907 62 28.9617 62 25.0954V24.9046C62 21.0383 62 18.0093 61.6819 15.645C61.357 13.2272 60.6772 11.3183 59.1803 9.81972C57.6817 8.32112 55.7728 7.64298 53.3533 7.31814C50.9907 7 47.9617 7 44.0954 7H43.9046ZM30.5963 11.5963C31.5507 10.6419 32.84 10.0943 34.9816 9.80633C37.1583 9.51498 40.0182 9.51163 44 9.51163C47.9818 9.51163 50.8417 9.51498 53.0184 9.80633C55.16 10.0943 56.451 10.6435 57.4054 11.5963C58.3581 12.5507 58.9057 13.84 59.1937 15.9816C59.485 18.1583 59.4884 21.0182 59.4884 25C59.4884 28.9818 59.485 31.8417 59.1937 34.0184C58.9057 36.16 58.3565 37.451 57.4037 38.4054C56.4493 39.3581 55.16 39.9057 53.0184 40.1937C50.8417 40.485 47.9818 40.4884 44 40.4884C40.0182 40.4884 37.1583 40.485 34.9816 40.1937C32.84 39.9057 31.549 39.3565 30.5946 38.4037C29.6419 37.4493 29.0943 36.16 28.8063 34.0184C28.515 31.8417 28.5116 28.9818 28.5116 25C28.5116 21.0182 28.515 18.1583 28.8063 15.9816C29.0943 13.84 29.6435 12.5507 30.5963 11.5963Z" fill="#0F172A"/>
</svg>
