<svg width="30" height="30" viewBox="0 0 30 30" fill="none" xmlns="http://www.w3.org/2000/svg">
<path d="M17.1383 12.9513C17.1383 13.4764 17.5467 13.9026 18.0499 13.9026H18.8885L16.4419 16.4559C16.4137 16.4855 16.3802 16.5089 16.3432 16.5249C16.3063 16.5409 16.2668 16.5491 16.2268 16.5491C16.1868 16.5491 16.1472 16.5409 16.1103 16.5249C16.0734 16.5089 16.0399 16.4855 16.0117 16.4559L14.084 14.4442C13.6852 14.0283 13.1444 13.7946 12.5805 13.7946C12.0167 13.7946 11.4759 14.0283 11.0771 14.4442L8.29013 17.3527C8.20057 17.4398 8.12874 17.5448 8.07891 17.6615C8.02909 17.7782 8.0023 17.9042 8.00014 18.0319C7.99798 18.1596 8.0205 18.2865 8.06634 18.405C8.11219 18.5234 8.18043 18.631 8.26699 18.7214C8.35355 18.8117 8.45666 18.8829 8.57016 18.9308C8.68367 18.9786 8.80525 19.0021 8.92764 18.9999C9.05004 18.9976 9.17074 18.9696 9.28256 18.9176C9.39438 18.8657 9.49502 18.7907 9.57847 18.6972L12.3654 15.7887C12.3936 15.7592 12.4272 15.7358 12.4641 15.7198C12.501 15.7038 12.5406 15.6956 12.5805 15.6956C12.6205 15.6956 12.6601 15.7038 12.697 15.7198C12.7339 15.7358 12.7674 15.7592 12.7957 15.7887L14.7233 17.8005C15.1222 18.2164 15.6629 18.45 16.2268 18.45C16.7906 18.45 17.3314 18.2164 17.7303 17.8005L20.1769 15.2484V16.1223C20.1769 16.3746 20.2729 16.6166 20.4439 16.795C20.6148 16.9734 20.8467 17.0737 21.0884 17.0737C21.3302 17.0737 21.5621 16.9734 21.733 16.795C21.904 16.6166 22 16.3746 22 16.1223V12.9513C22 12.699 21.904 12.457 21.733 12.2786C21.5621 12.1002 21.3302 12 21.0884 12H18.0499C17.8081 12 17.5763 12.1002 17.4053 12.2786C17.2344 12.457 17.1383 12.699 17.1383 12.9513Z" fill="#F6A723"/>
<path fill-rule="evenodd" clip-rule="evenodd" d="M15.4284 2C12.5287 2 10.257 2 8.48377 2.2386C6.67037 2.48223 5.23874 2.99209 4.11479 4.11479C2.99084 5.23874 2.48223 6.67037 2.2386 8.48502C2 10.257 2 12.5287 2 15.4284V15.5716C2 18.4713 2 20.743 2.2386 22.5162C2.48223 24.3296 2.99209 25.7613 4.11479 26.8852C5.23874 28.0092 6.67037 28.5178 8.48502 28.7614C10.257 29 12.5287 29 15.4284 29H15.5716C18.4713 29 20.743 29 22.5162 28.7614C24.3296 28.5178 25.7613 28.0079 26.8852 26.8852C28.0092 25.7613 28.5178 24.3296 28.7614 22.515C29 20.743 29 18.4713 29 15.5716V15.4284C29 12.5287 29 10.257 28.7614 8.48377C28.5178 6.67037 28.0079 5.23874 26.8852 4.11479C25.7613 2.99084 24.3296 2.48223 22.515 2.2386C20.743 2 18.4713 2 15.5716 2H15.4284ZM5.44721 5.44721C6.16302 4.7314 7.13 4.32074 8.73619 4.10474C10.3687 3.88623 12.5137 3.88372 15.5 3.88372C18.4863 3.88372 20.6313 3.88623 22.2638 4.10474C23.87 4.32074 24.8382 4.73265 25.554 5.44721C26.2686 6.16302 26.6793 7.13 26.8953 8.73619C27.1138 10.3687 27.1163 12.5137 27.1163 15.5C27.1163 18.4863 27.1138 20.6313 26.8953 22.2638C26.6793 23.87 26.2673 24.8382 25.5528 25.554C24.837 26.2686 23.87 26.6793 22.2638 26.8953C20.6313 27.1138 18.4863 27.1163 15.5 27.1163C12.5137 27.1163 10.3687 27.1138 8.73619 26.8953C7.13 26.6793 6.16177 26.2673 5.44595 25.5528C4.7314 24.837 4.32074 23.87 4.10474 22.2638C3.88623 20.6313 3.88372 18.4863 3.88372 15.5C3.88372 12.5137 3.88623 10.3687 4.10474 8.73619C4.32074 7.13 4.73265 6.16302 5.44721 5.44721Z" fill="#F6A723"/>
</svg>
