<svg width="46" height="46" viewBox="0 0 46 46" fill="none" xmlns="http://www.w3.org/2000/svg">
<rect x="0.741943" y="0.193604" width="45" height="45" rx="7.54839" fill="#2563EB"/>
<path d="M17.2787 14.2503C17.2783 14.928 17.0127 15.5779 16.5402 16.0569C16.0676 16.5359 15.427 16.8048 14.759 16.8044C14.0911 16.8041 13.4507 16.5345 12.9787 16.0551C12.5066 15.5756 12.2416 14.9255 12.2419 14.2477C12.2423 13.57 12.5079 12.9202 12.9804 12.4412C13.453 11.9622 14.0937 11.6933 14.7616 11.6936C15.4295 11.6939 16.0699 11.9635 16.5419 12.443C17.014 12.9224 17.279 13.5726 17.2787 14.2503ZM17.3542 18.6967H12.3175V34.6936H17.3542V18.6967ZM25.3122 18.6967H20.3007V34.6936H25.2619V26.2991C25.2619 21.6227 31.2682 21.1882 31.2682 26.2991V34.6936H36.2419V24.5614C36.2419 16.6779 27.3521 16.9718 25.2619 20.8433L25.3122 18.6967Z" fill="white"/>
</svg>
