<svg width="30" height="30" viewBox="0 0 30 30" fill="none" xmlns="http://www.w3.org/2000/svg">
<path d="M11.7 27H19.3M17.4 9.46154L14.55 12.2308L16.45 14.0769L13.6 16.8462M25 12.2308V14.0769C25 15.5538 23.7327 17.1545 23.1 17.7692L20.25 20.5385L19.3 23.3077H11.7L10.75 20.5385L7.9 17.7692C7.2673 17.1545 6 15.5538 6 14.0769V12.2308C6 9.78262 7.00089 7.43473 8.78249 5.70363C10.5641 3.97252 12.9804 3 15.5 3C18.0196 3 20.4359 3.97252 22.2175 5.70363C23.9991 7.43473 25 9.78262 25 12.2308Z" stroke="#F6A723" stroke-width="2"/>
</svg>
