<svg width="48" height="48" viewBox="0 0 48 48" fill="none" xmlns="http://www.w3.org/2000/svg">
<path d="M43.0898 23.4301H3.08984M43.0898 23.4301V35.4301C43.0898 36.4909 42.6684 37.5083 41.9183 38.2585C41.1681 39.0086 40.1507 39.4301 39.0898 39.4301H7.08984C6.02898 39.4301 5.01156 39.0086 4.26142 38.2585C3.51127 37.5083 3.08984 36.4909 3.08984 35.4301V23.4301M43.0898 23.4301L36.1898 9.65005C35.8587 8.98363 35.3482 8.4228 34.7158 8.03061C34.0833 7.63843 33.354 7.43045 32.6098 7.43005H13.5698C12.8257 7.43045 12.0964 7.63843 11.4639 8.03061C10.8315 8.4228 10.321 8.98363 9.98984 9.65005L3.08984 23.4301M11.0898 31.4301H11.1098M19.0898 31.4301H19.1098" stroke="#34D399" stroke-width="3" stroke-linecap="round" stroke-linejoin="round"/>
</svg>
