<svg width="30" height="30" viewBox="0 0 30 30" fill="none" xmlns="http://www.w3.org/2000/svg">
<path d="M15.0714 25.1538C11.7286 25.1538 8.47857 23.4923 6.52857 20.5385H11.3571V18.6923H3.92857V26.0769H5.78571V22.6615C8.10714 25.4308 11.45 27 15.0714 27V25.1538ZM29 21.4615V19.6154H27.05C26.9571 19.0615 26.6786 18.5077 26.4 17.9538L27.7929 16.5692L26.4929 15.2769L25.1 16.6615C24.6357 16.3846 24.0786 16.1077 23.4286 16.0154V14.0769H21.5714V16.0154C21.0143 16.1077 20.4571 16.3846 19.9 16.6615L18.5071 15.2769L17.2071 16.5692L18.6 17.9538C18.3214 18.4154 18.0429 18.9692 17.95 19.6154H16V21.4615H17.95C18.0429 22.0154 18.3214 22.5692 18.6 23.1231L17.2071 24.5077L18.5071 25.8L19.9 24.4154C20.3643 24.6923 20.9214 24.9692 21.5714 25.0615V27H23.4286V25.0615C23.9857 24.9692 24.5429 24.6923 25.1 24.4154L26.4929 25.8L27.7929 24.5077L26.4 23.1231C26.6786 22.6615 26.9571 22.1077 27.05 21.4615H29ZM22.5 23.3077C20.9214 23.3077 19.7143 22.1077 19.7143 20.5385C19.7143 18.9692 20.9214 17.7692 22.5 17.7692C24.0786 17.7692 25.2857 18.9692 25.2857 20.5385C25.2857 22.1077 24.0786 23.3077 22.5 23.3077ZM18.7857 9.46154H23.6143C20.55 4.75385 14.2357 3.46154 9.5 6.50769C6.62143 8.35385 4.85714 11.5846 4.85714 15H3C3 8.35385 8.38571 3 15.0714 3C18.6929 3 22.0357 4.56923 24.3571 7.33846V3.92308H26.2143V11.3077H18.7857V9.46154Z" fill="#38BDF8"/>
</svg>
