<svg width="48" height="48" viewBox="0 0 48 48" fill="none" xmlns="http://www.w3.org/2000/svg">
<path d="M29.3987 12.6C29.0323 12.9738 28.827 13.4765 28.827 14C28.827 14.5235 29.0323 15.0261 29.3987 15.4L32.5987 18.6C32.9726 18.9664 33.4752 19.1717 33.9987 19.1717C34.5222 19.1717 35.0249 18.9664 35.3987 18.6L42.9387 11.06C43.9444 13.2823 44.2489 15.7584 43.8116 18.1583C43.3744 20.5581 42.2162 22.7676 40.4913 24.4925C38.7664 26.2174 36.5568 27.3756 34.157 27.8129C31.7572 28.2501 29.2811 27.9456 27.0587 26.94L13.2387 40.76C12.4431 41.5556 11.364 42.0026 10.2387 42.0026C9.11352 42.0026 8.03438 41.5556 7.23873 40.76C6.44308 39.9643 5.99609 38.8852 5.99609 37.76C5.99609 36.6347 6.44308 35.5556 7.23873 34.76L21.0587 20.94C20.0531 18.7176 19.7486 16.2415 20.1858 13.8417C20.6231 11.4418 21.7813 9.23227 23.5062 7.5074C25.231 5.78253 27.4406 4.6243 29.8404 4.18704C32.2403 3.74979 34.7164 4.05429 36.9387 5.05996L29.4187 12.58L29.3987 12.6Z" stroke="#38BDF8" stroke-width="3" stroke-linecap="round" stroke-linejoin="round"/>
</svg>
