<svg width="30" height="30" viewBox="0 0 30 30" fill="none" xmlns="http://www.w3.org/2000/svg">
<g clip-path="url(#clip0_98_134)">
<path d="M15 30C6.71531 30 0 23.2847 0 15C0 6.71531 6.71531 0 15 0C23.2847 0 30 6.71531 30 15H28.125C28.125 7.75125 22.2488 1.875 15 1.875C7.75125 1.875 1.875 7.75125 1.875 15C1.875 22.2488 7.75125 28.125 15 28.125V30Z" fill="#34D399"/>
<path d="M25.2174 18.5217V30H23.3043V18.5217H25.2174ZM20.4348 22.3478V30H18.5217V22.3478H20.4348ZM30 20.4348V30H28.087V20.4348H30ZM15.6522 8V13.7391H21.3913V15.6522H15.6522V21.3913H13.7391V15.6522H8V13.7391H13.7391V8H15.6522Z" fill="#34D399"/>
</g>
<defs>
<clipPath id="clip0_98_134">
<rect width="30" height="30" fill="white"/>
</clipPath>
</defs>
</svg>
