<svg width="200" height="32" viewBox="0 0 200 32" fill="none" xmlns="http://www.w3.org/2000/svg">
<mask id="mask0_19849_187" style="mask-type:luminance" maskUnits="userSpaceOnUse" x="56" y="24" width="24" height="8">
<path d="M56.0754 24.7041H79.6696V31.9345H56.0754V24.7041Z" fill="white"/>
</mask>
<g mask="url(#mask0_19849_187)">
<mask id="mask1_19849_187" style="mask-type:luminance" maskUnits="userSpaceOnUse" x="56" y="24" width="24" height="9">
<path d="M79.9223 31.1036L56.5615 32.5351L56.178 26.2679L79.5373 24.8364L79.9223 31.1036Z" fill="white"/>
</mask>
<g mask="url(#mask1_19849_187)">
<mask id="mask2_19849_187" style="mask-type:luminance" maskUnits="userSpaceOnUse" x="56" y="24" width="24" height="9">
<path d="M79.9223 31.1036L56.5615 32.5351L56.178 26.2679L79.5373 24.8364L79.9223 31.1036Z" fill="white"/>
</mask>
<g mask="url(#mask2_19849_187)">
<path d="M79.5492 25.0281C79.2905 25.5246 78.9917 25.9958 78.6513 26.4418C78.4848 26.6678 78.305 26.8833 78.1221 27.0974L78.0537 27.1776L77.7683 27.4868L77.694 27.5641L77.5468 27.7158C76.7352 28.5289 75.8358 29.2276 74.8458 29.8103C72.8658 30.9861 70.5765 31.6744 68.2561 31.8141C65.9341 31.9538 63.578 31.554 61.4715 30.6293C60.4191 30.1715 59.4395 29.5888 58.5357 28.8812L58.3707 28.7474L58.2889 28.682L58.2071 28.6136L58.0466 28.4769C58.0213 28.4546 57.9931 28.4323 57.9663 28.41L57.889 28.3371L57.7344 28.1944C57.6824 28.1469 57.6304 28.0993 57.5798 28.0502C57.5278 27.9997 57.4787 27.9521 57.4282 27.9031C57.3791 27.8525 57.3301 27.8035 57.281 27.7514C56.8901 27.3516 56.5348 26.9205 56.2167 26.4596L56.3133 26.3511C57.1264 27.0528 57.999 27.6712 58.9326 28.2033C59.8631 28.7385 60.8368 29.177 61.8536 29.5204C62.1063 29.6066 62.362 29.6854 62.6191 29.7582C62.8763 29.8311 63.135 29.898 63.3936 29.9604C63.9139 30.0823 64.4387 30.1789 64.9693 30.2503C67.1129 30.5312 69.2327 30.4019 71.3257 29.8593C71.8416 29.7255 72.3514 29.565 72.8539 29.3807C73.1051 29.2885 73.3533 29.1889 73.5986 29.0848C73.8454 28.9793 74.0892 28.8708 74.3315 28.7548C75.2977 28.291 76.209 27.7366 77.0667 27.0914C77.9289 26.4478 78.7197 25.7283 79.4407 24.9315L79.5492 25.0281Z" fill="#1671D9"/>
</g>
</g>
</g>
<path d="M10.4176 22.7735C8.37954 22.7735 6.57341 22.2993 5.00067 21.3524C3.42644 20.401 2.20006 19.0795 1.32003 17.3864C0.440011 15.6947 0 13.7399 0 11.5235C0 9.28777 0.469742 7.31961 1.40923 5.61902C2.34871 3.91547 3.65388 2.58949 5.32771 1.64108C7.00005 0.689706 8.93402 0.214018 11.1311 0.214018C12.692 0.214018 14.125 0.505377 15.4301 1.08809C16.7383 1.67081 17.8517 2.48394 18.7718 3.526C19.6905 4.56508 20.3297 5.76619 20.6865 7.12933L16.0247 8.11044C15.6918 7.06095 15.0689 6.20472 14.1577 5.54173C13.2449 4.88022 12.2163 4.54873 11.0716 4.54873C9.90174 4.54873 8.86118 4.84603 7.94994 5.44064C7.04167 6.03228 6.33408 6.84689 5.82718 7.88449C5.32325 8.92357 5.07202 10.1366 5.07202 11.5235C5.07202 12.9075 5.35892 14.1338 5.93421 15.2041C6.50801 16.2715 7.29884 17.1069 8.3067 17.7134C9.31754 18.3169 10.477 18.6172 11.7852 18.6172C12.9105 18.6172 13.9168 18.3853 14.8058 17.9215C15.6977 17.4547 16.4142 16.8155 16.9583 16.0069C17.5053 15.1952 17.7982 14.2736 17.8383 13.2419H8.75266V10.0964H22.7974V22.0897H19.087L18.5816 18.0821H18.5518C17.877 19.5448 16.8171 20.6924 15.3707 21.5248C13.9273 22.3573 12.2757 22.7735 10.4176 22.7735Z" fill="#1671D9"/>
<path d="M31.1653 28.9158C29.5628 28.9158 28.0882 28.663 26.7414 28.1606C25.3976 27.6567 24.3481 26.9788 23.5959 26.127L25.2608 22.8329C25.8911 23.5256 26.6953 24.0845 27.6749 24.5097C28.6575 24.9334 29.6921 25.1459 30.7788 25.1459C32.2445 25.1459 33.4084 24.7654 34.2691 24.0043C35.1284 23.2432 35.5594 22.2086 35.5594 20.9004V19.5982H35.5297C35.054 20.5659 34.3791 21.3226 33.508 21.8696C32.6399 22.4122 31.6796 22.6842 30.6301 22.6842C28.9489 22.6842 27.6125 22.1342 26.6225 21.0372C25.6354 19.9401 25.1419 18.4893 25.1419 16.6846V6.8914H29.649V15.8878C29.649 16.7961 29.8869 17.5438 30.3626 18.1295C30.8382 18.7122 31.5012 19.0036 32.3545 19.0036C33.242 19.0036 33.9927 18.6929 34.6081 18.0701C35.222 17.4442 35.5297 16.6371 35.5297 15.65V6.8914H40.0725V21.0491C40.0725 22.6545 39.6994 24.0459 38.9547 25.2232C38.2129 26.4006 37.1783 27.3103 35.8508 27.9525C34.5263 28.5947 32.964 28.9158 31.1653 28.9158Z" fill="#1671D9"/>
<path d="M48.7083 22.5356C47.3839 22.5356 46.211 22.1982 45.1883 21.5248C44.1685 20.8514 43.3717 19.9119 42.7979 18.7063C42.2271 17.4978 41.9417 16.093 41.9417 14.4906C41.9417 12.8702 42.2271 11.461 42.7979 10.2629C43.3717 9.06623 44.1685 8.1312 45.1883 7.45632C46.211 6.78293 47.3839 6.44548 48.7083 6.44548C51.1225 6.44548 52.8736 7.56335 53.9647 9.79909H53.9944V0.0653172H58.5313V22.0897H54.7317L54.0539 19.182H54.0242C53.489 20.2687 52.7651 21.0997 51.8538 21.6735C50.9456 22.2472 49.8976 22.5356 48.7083 22.5356ZM50.3138 18.7063C51.063 18.7063 51.729 18.519 52.3117 18.1415C52.8974 17.7654 53.3537 17.2614 53.6793 16.6312C54.0078 15.9979 54.1728 15.2844 54.1728 14.4906C54.1728 13.2865 53.8101 12.2831 53.0847 11.4818C52.3622 10.6776 51.4391 10.2748 50.3138 10.2748C49.2034 10.2748 48.2817 10.6776 47.5489 11.4818C46.819 12.2831 46.4548 13.2865 46.4548 14.4906C46.4548 15.7006 46.819 16.7055 47.5489 17.5052C48.2817 18.3065 49.2034 18.7063 50.3138 18.7063Z" fill="#1671D9"/>
<path d="M67.5874 28.9158C66.0251 28.9158 64.5267 28.6572 63.0922 28.1429C61.6562 27.6315 60.5235 26.9492 59.691 26.0974L61.2667 22.7141C61.9357 23.4469 62.8038 24.0356 63.8711 24.4801C64.9414 24.923 66.0504 25.146 67.2009 25.146C68.7618 25.146 70.009 24.7253 70.941 23.8854C71.8716 23.0441 72.3384 21.9024 72.3384 20.4545V19.2415H72.3086C71.7928 20.0903 71.0555 20.7682 70.0967 21.2751C69.1364 21.779 68.1315 22.0303 67.082 22.0303C65.7382 22.0303 64.5638 21.7092 63.5619 21.067C62.563 20.4248 61.7855 19.5255 61.2311 18.3675C60.6795 17.2065 60.4045 15.8448 60.4045 14.2825C60.4045 12.7008 60.6751 11.3273 61.2192 10.1618C61.7617 8.99344 62.5228 8.08666 63.5025 7.44448C64.4851 6.79932 65.6282 6.47526 66.9334 6.47526C68.0631 6.47526 69.1215 6.77851 70.1086 7.38502C71.0986 7.98854 71.8419 8.78235 72.3384 9.7694H72.3681L73.046 6.89149H76.8752V20.6032C76.8752 22.2874 76.4947 23.7517 75.7336 24.9974C74.9725 26.246 73.8933 27.2108 72.4989 27.8931C71.1031 28.5739 69.4664 28.9158 67.5874 28.9158ZM68.7172 18.3496C69.8618 18.3496 70.782 17.9691 71.4762 17.208C72.1689 16.4469 72.5168 15.4717 72.5168 14.2825C72.5168 13.0784 72.1689 12.0854 71.4762 11.3035C70.782 10.5186 69.8618 10.1262 68.7172 10.1262C67.5874 10.1262 66.6717 10.5097 65.9701 11.2738C65.2685 12.0349 64.9176 13.0383 64.9176 14.2825C64.9176 15.4925 65.2685 16.4736 65.9701 17.2258C66.6717 17.975 67.5874 18.3496 68.7172 18.3496Z" fill="#1671D9"/>
<path d="M87.8283 22.6843C86.0474 22.6843 84.4747 22.3335 83.1071 21.6319C81.7425 20.9273 80.6751 19.9521 79.9021 18.7064C79.1321 17.4577 78.7486 16.0232 78.7486 14.4014C78.7486 12.8004 79.089 11.3912 79.7713 10.1737C80.4522 8.95776 81.4124 8.00787 82.6492 7.32555C83.886 6.64027 85.3161 6.29688 86.9423 6.29688C88.524 6.29688 89.9035 6.62391 91.0808 7.27799C92.2581 7.93206 93.1768 8.83884 93.8398 9.99535C94.5013 11.1534 94.8328 12.4927 94.8328 14.0149C94.8328 14.3122 94.812 14.6155 94.7733 14.9247C94.7377 15.2309 94.6901 15.5014 94.6306 15.7393H83.4103C83.5486 16.8259 84.0377 17.7015 84.879 18.3675C85.7189 19.0305 86.761 19.3605 88.0067 19.3605C88.9581 19.3605 89.847 19.1687 90.6765 18.7837C91.5089 18.3957 92.1422 17.8947 92.5792 17.2793L95.1598 19.2713C94.5489 20.2791 93.5856 21.0997 92.27 21.733C90.953 22.3662 89.4724 22.6843 87.8283 22.6843ZM83.3806 13.123H90.2365C90.1562 11.9977 89.8202 11.1177 89.2256 10.4829C88.631 9.84967 87.8699 9.53156 86.9423 9.53156C85.9909 9.53156 85.1942 9.86454 84.552 10.5305C83.9098 11.1935 83.5189 12.0572 83.3806 13.123Z" fill="#1671D9"/>
<path d="M106.857 6.44544C108.418 6.44544 109.646 6.9018 110.538 7.81304C111.43 8.72131 111.876 9.98783 111.876 11.6126V22.0896H107.333V13.004C107.333 12.1359 107.104 11.455 106.649 10.9585C106.193 10.4635 105.57 10.2153 104.782 10.2153C103.81 10.2153 103.012 10.5334 102.386 11.1666C101.763 11.8014 101.452 12.6413 101.452 13.6878V22.0896H96.9154V6.8914H100.745L101.423 9.65039H101.452C102.007 8.62468 102.744 7.83385 103.664 7.27789C104.583 6.72342 105.647 6.44544 106.857 6.44544Z" fill="#1671D9"/>
<path d="M119.174 22.0897L113.121 0.957233H118.258L122.468 17.3387H122.527L126.595 0.957233H132.951L137.077 17.3387H137.131L141.258 0.957233H146.425L140.372 22.0897H133.807L129.829 5.85088H129.77L125.738 22.0897H119.174Z" fill="#1671D9"/>
<path d="M152.448 22.5357C150.866 22.5357 149.565 22.1403 148.547 21.3524C147.527 20.5601 147.019 19.5091 147.019 18.201C147.019 16.8973 147.581 15.7987 148.708 14.9068C149.837 14.0149 151.54 13.45 153.815 13.2122L156.753 12.8554C157.11 12.8198 157.396 12.7097 157.615 12.5224C157.832 12.3322 157.942 12.0795 157.942 11.7613C157.942 11.1073 157.683 10.5825 157.169 10.1856C156.653 9.79021 155.992 9.59102 155.183 9.59102C154.27 9.59102 153.518 9.87495 152.923 10.4413C152.332 11.0047 151.997 11.6632 151.919 12.4154L147.495 11.7316C147.593 10.6821 147.964 9.74562 148.607 8.92506C149.249 8.10449 150.123 7.46231 151.229 6.99852C152.338 6.53175 153.616 6.29688 155.064 6.29688C157.3 6.29688 159.079 6.84689 160.404 7.94395C161.731 9.04249 162.396 10.5424 162.396 12.4451V18.3199C162.396 19.0542 162.653 19.4199 163.169 19.4199C163.6 19.4199 163.995 19.1925 164.352 18.7361L165.422 21.1383C164.966 21.5947 164.377 21.9411 163.656 22.1789C162.934 22.4168 162.226 22.5357 161.533 22.5357C160.621 22.5357 159.839 22.2874 159.185 21.7924C158.534 21.2974 158.159 20.7043 158.061 20.0145L158.001 19.4794H157.972C157.475 20.3877 156.753 21.125 155.801 21.6913C154.853 22.2532 153.735 22.5357 152.448 22.5357ZM154.172 19.4199C155.242 19.4199 156.122 19.0899 156.812 18.4269C157.505 17.761 157.853 16.9151 157.853 15.8879V15.2636L154.945 15.5906C153.676 15.7304 152.794 15.9875 152.299 16.3636C151.807 16.7367 151.562 17.1708 151.562 17.6658C151.562 18.1816 151.807 18.6038 152.299 18.9323C152.794 19.2579 153.418 19.4199 154.172 19.4199Z" fill="#1671D9"/>
<path d="M171.356 22.0896L165.6 6.8914H170.262L174.151 18.3793H174.21L178.099 6.8914H182.755L176.91 22.0896H171.356Z" fill="#1671D9"/>
<path d="M192.668 22.6843C190.888 22.6843 189.315 22.3335 187.947 21.6319C186.583 20.9273 185.515 19.9521 184.742 18.7064C183.972 17.4577 183.589 16.0232 183.589 14.4014C183.589 12.8004 183.929 11.3912 184.611 10.1737C185.292 8.95776 186.253 8.00787 187.489 7.32555C188.726 6.64027 190.156 6.29688 191.782 6.29688C193.364 6.29688 194.744 6.62391 195.921 7.27799C197.098 7.93206 198.017 8.83884 198.68 9.99535C199.341 11.1534 199.673 12.4927 199.673 14.0149C199.673 14.3122 199.652 14.6155 199.614 14.9247C199.578 15.2309 199.53 15.5014 199.471 15.7393H188.251C188.389 16.8259 188.878 17.7015 189.719 18.3675C190.559 19.0305 191.601 19.3605 192.847 19.3605C193.798 19.3605 194.687 19.1687 195.517 18.7837C196.349 18.3957 196.982 17.8947 197.419 17.2793L200 19.2713C199.389 20.2791 198.426 21.0997 197.11 21.733C195.793 22.3662 194.313 22.6843 192.668 22.6843ZM188.221 13.123H195.077C194.996 11.9977 194.66 11.1177 194.066 10.4829C193.471 9.84967 192.71 9.53156 191.782 9.53156C190.831 9.53156 190.034 9.86454 189.392 10.5305C188.75 11.1935 188.359 12.0572 188.221 13.123Z" fill="#1671D9"/>
</svg>
