<svg width="64" height="50" viewBox="0 0 64 50" fill="none" xmlns="http://www.w3.org/2000/svg">
<circle cx="25" cy="25" r="25" fill="#FFECA8"/>
<path d="M28 25C28 17.8758 28 14.3137 30.0177 11.9524C30.3051 11.6156 30.6167 11.304 30.9524 11.0177C33.3137 9 36.8758 9 44 9C51.1242 9 54.6863 9 57.0476 11.0177C57.3844 11.3051 57.696 11.6167 57.9823 11.9524C60 14.3137 60 17.8758 60 25C60 32.1242 60 35.6863 57.9823 38.0476C57.6949 38.3844 57.3833 38.696 57.0476 38.9823C54.6863 41 51.1242 41 44 41C36.8758 41 33.3137 41 30.9524 38.9823C30.6156 38.6949 30.304 38.3833 30.0177 38.0476C28 35.6863 28 32.1242 28 25Z" stroke="#0F172A" stroke-width="3" stroke-linecap="round" stroke-linejoin="round"/>
<path d="M48.5435 22.2071C48.3789 20.91 46.9216 18.8156 44.3016 18.8156C41.259 18.8156 39.9781 20.5377 39.7186 21.3996C39.3127 22.5522 39.3943 24.9203 42.9625 25.1787C47.4207 25.5017 49.2073 26.0389 48.981 28.8286C48.7548 31.6183 46.2679 32.2201 44.3033 32.1555C42.3387 32.0909 39.1248 31.1695 39 28.6875M43.9905 17V18.8224M43.9905 32.1385V34" stroke="#0F172A" stroke-width="3" stroke-linecap="round" stroke-linejoin="round"/>
</svg>
