<svg width="30" height="30" viewBox="0 0 30 30" fill="none" xmlns="http://www.w3.org/2000/svg">
<path d="M5.5 24.4444H10.5V14.2222H5.5V24.4444ZM13 24.4444H18V6.55556H13V24.4444ZM20.5 24.4444H25.5V16.7778H20.5V24.4444ZM3 24.4444V14.2222C3 13.5194 3.245 12.918 3.735 12.418C4.225 11.918 4.81333 11.6675 5.5 11.6667H10.5V6.55556C10.5 5.85278 10.745 5.25137 11.235 4.75133C11.725 4.2513 12.3133 4.00085 13 4H18C18.6875 4 19.2762 4.25044 19.7662 4.75133C20.2562 5.25222 20.5008 5.85363 20.5 6.55556V14.2222H25.5C26.1875 14.2222 26.7762 14.4727 27.2662 14.9736C27.7562 15.4744 28.0008 16.0759 28 16.7778V24.4444C28 25.1472 27.7554 25.7491 27.2662 26.2499C26.7771 26.7508 26.1883 27.0009 25.5 27H5.5C4.8125 27 4.22417 26.75 3.735 26.2499C3.24583 25.7499 3.00083 25.1481 3 24.4444Z" fill="#ED4F9D"/>
</svg>
