<svg width="30" height="30" viewBox="0 0 30 30" fill="none" xmlns="http://www.w3.org/2000/svg">
<path d="M3 7.84946C3.00019 7.12112 3.27552 6.42049 3.76944 5.89141C4.26337 5.36233 4.93842 5.04495 5.656 5.00442C6.37359 4.96389 7.07926 5.2033 7.62814 5.67349C8.17701 6.14367 8.52745 6.80896 8.6075 7.53277H22.3925C22.4725 6.80896 22.823 6.14367 23.3719 5.67349C23.9207 5.2033 24.6264 4.96389 25.344 5.00442C26.0616 5.04495 26.7366 5.36233 27.2306 5.89141C27.7245 6.42049 27.9998 7.12112 28 7.84946V21.1505C27.9998 21.8789 27.7245 22.5795 27.2306 23.1086C26.7366 23.6377 26.0616 23.9551 25.344 23.9956C24.6264 24.0361 23.9207 23.7967 23.3719 23.3265C22.823 22.8563 22.4725 22.191 22.3925 21.4672H8.6075C8.52745 22.191 8.17701 22.8563 7.62814 23.3265C7.07926 23.7967 6.37359 24.0361 5.656 23.9956C4.93842 23.9551 4.26337 23.6377 3.76944 23.1086C3.27552 22.5795 3.00019 21.8789 3 21.1505V7.84946ZM6.75 7.84946C6.75 7.59749 6.65123 7.35583 6.47541 7.17766C6.2996 6.99949 6.06114 6.89939 5.8125 6.89939C5.56386 6.89939 5.3254 6.99949 5.14959 7.17766C4.97377 7.35583 4.875 7.59749 4.875 7.84946V21.1505C4.875 21.4025 4.97377 21.6442 5.14959 21.8223C5.3254 22.0005 5.56386 22.1006 5.8125 22.1006C6.06114 22.1006 6.2996 22.0005 6.47541 21.8223C6.65123 21.6442 6.75 21.4025 6.75 21.1505V7.84946ZM8.625 19.5671H22.375V9.43293H8.625V19.5671ZM26.125 7.84946C26.125 7.59749 26.0262 7.35583 25.8504 7.17766C25.6746 6.99949 25.4361 6.89939 25.1875 6.89939C24.9389 6.89939 24.7004 6.99949 24.5246 7.17766C24.3488 7.35583 24.25 7.59749 24.25 7.84946V21.1505C24.25 21.4025 24.3488 21.6442 24.5246 21.8223C24.7004 22.0005 24.9389 22.1006 25.1875 22.1006C25.4361 22.1006 25.6746 22.0005 25.8504 21.8223C26.0262 21.6442 26.125 21.4025 26.125 21.1505V7.84946Z" fill="#34D399"/>
</svg>
